<svg xmlns="http://www.w3.org/2000/svg" xmlns:xlink="http://www.w3.org/1999/xlink" width="649" height="648" viewBox="0 0 649 648">
    <defs>
        <circle id="a" cx="323.584" cy="323.584" r="323.584"/>
    </defs>
    <g fill="none" fill-rule="evenodd">
        <g transform="rotate(-14 325.805 320.415)">
            <mask id="b" fill="#fff">
                <use xlink:href="#a"/>
            </mask>
            <use fill="#EE0058" xlink:href="#a"/>
            <path fill="#FFF" d="M250.596 675.002h-35.591V542.374h-27.118v-31.206h27.118v-9.159c0-35.616 20.677-56.647 51.861-56.647 14.576 0 29.152 3.732 39.32 14.247l-13.897 22.048c-4.746-4.41-10.847-7.123-18.982-7.123-13.898 0-22.71 9.158-22.71 27.475v9.159h33.218v31.206h-33.219v132.628zM334.022 495.4c-11.241 0-20.877-9.61-20.877-21.54s9.636-21.539 20.877-21.539c11.562 0 20.876 9.61 20.876 21.54 0 11.929-9.314 21.538-20.876 21.538zm17.022 179.602h-33.723V514.95h33.723v160.052zM434.407 681.961c-26.043 0-39.87-14.65-39.87-41.287V547.78h-25.721v-30.632h25.722v-43.95h33.76v43.95h31.51v30.632h-31.51v84.238c0 10.987 5.145 18.978 14.79 18.978 6.431 0 12.54-2.664 15.112-5.66l8.039 26.303c-6.11 5.994-16.077 10.322-31.832 10.322z" mask="url(#b)"/>
        </g>
        <path fill="#FFF" d="M143.981 280.738c-49.59 12.364-89.493-16.498-100.504-60.663-10.933-43.847 10.749-88.063 60.34-100.428 50.24-12.526 89.817 16.417 100.75 60.264 11.011 44.165-10.346 88.3-60.586 100.827zm-7.367-29.55c29.171-7.273 39.436-35.143 32.623-62.468-6.734-27.007-28.881-46.797-58.053-39.523-28.847 7.192-39.112 35.063-32.378 62.07 6.813 27.325 28.96 47.114 57.808 39.922zM382.7 221.218l-34.495 8.6-24.504-98.28c-6.086-24.408-20.598-29.431-39.981-24.598-17.74 4.423-30.257 18.605-35.464 31.31l27.345 109.671-34.496 8.6-39.19-157.184 34.495-8.6 5.355 21.478c7.43-14.988 24.553-33.084 49.52-39.309 34.168-8.518 55.795 5.446 63.828 37.665L382.7 221.218zM470.012 199.449c-46.512 11.597-89.157-11.857-101.277-60.47-11.09-44.482 12.676-88.544 58.547-99.98 46.512-11.597 85.137 16.233 97.179 64.528l1.98 7.944-119.648 29.831c8.349 22.555 30.745 37.22 59.935 29.942 15.076-3.759 31.535-14.274 39.747-27.797l20.864 18.085c-11.753 18.455-32.627 31.759-57.327 37.917zM487.86 96.116c-5.157-17.95-23.292-37.39-53.765-29.792-28.87 7.198-36.555 32.4-33.485 51.546l87.25-21.754z"/>
        <path fill="#FFF" d="M162.676 484.235c-25.235 6.292-42.168-4.553-48.598-30.343l-22.425-89.944-24.924 6.214-7.394-29.66 24.923-6.213-10.61-42.554 32.712-8.156 10.61 42.554 30.53-7.612 7.395 29.659-30.53 7.612 20.335 81.562c2.653 10.638 9.566 17.133 18.913 14.802 6.23-1.553 11.507-5.608 13.275-9.13l14.139 23.525c-4.473 7.279-13.085 13.878-28.35 17.684zM398.394 417.835l-35.801 8.926-64.765-104.465-8.14 122.642-35.801 8.927-87.45-142.762 35.476-8.845 61.27 104.315 9.357-121.924 29.943-7.466 65.5 103.26 5.126-120.869 35.476-8.845zM529.394 384.083c-49.591 12.365-89.493-16.497-100.505-60.662-10.932-43.847 10.75-88.063 60.34-100.428 50.24-12.526 89.818 16.417 100.75 60.264 11.012 44.165-10.346 88.3-60.585 100.826zm-7.367-29.549c29.17-7.273 39.436-35.144 32.623-62.468-6.734-27.008-28.882-46.797-58.053-39.524-28.847 7.193-39.112 35.063-32.378 62.07 6.813 27.325 28.96 47.115 57.808 39.922z"/>
    </g>
</svg>
