<svg xmlns="http://www.w3.org/2000/svg" width="35" height="35" viewBox="0 0 35 35">
    <g fill="#FFF" fill-rule="nonzero">
        <path d="M24.573 0H10.427C4.677 0 0 4.677 0 10.427v14.146C0 30.323 4.677 35 10.427 35h14.146C30.323 35 35 30.323 35 24.573V10.427C35 4.677 30.323 0 24.573 0zm6.906 24.573a6.906 6.906 0 0 1-6.906 6.906H10.427a6.906 6.906 0 0 1-6.906-6.906V10.427a6.906 6.906 0 0 1 6.906-6.906h14.146a6.906 6.906 0 0 1 6.906 6.906v14.146z"/>
        <path d="M17 8c-4.963 0-9 4.037-9 9s4.037 9 9 9 9-4.037 9-9-4.037-9-9-9zm0 14.5a5.5 5.5 0 1 1 0-11 5.5 5.5 0 0 1 0 11z"/>
        <circle cx="26" cy="8" r="2"/>
    </g>
</svg>
