<svg xmlns="http://www.w3.org/2000/svg" width="63" height="21" viewBox="0 0 63 21">
    <g fill="none" fill-rule="nonzero">
        <path fill="#FCB614" d="M7.589 0L0 7.716V21l16.383-.015 7.61-7.666L24 .283V0z"/>
        <path fill="#221F20" d="M46.474 9.913l-2.453 4.494V9.651H40.78V19h3.02a.518.518 0 0 0 .45-.255l2.55-4.498V19h3.237V9.65h-3.11c-.189 0-.362.1-.453.262zm-1.122-1.141c-1.64 0-2.975-1.212-2.975-2.772h2.004c0 .569.278 1.072.971 1.072.718 0 .971-.503.971-1.072h2.004c0 1.56-1.335 2.772-2.975 2.772zm-14.934.88H22.025v2.793h2.54V19h3.313v-6.555h2.54V9.651zM37.011 19h3.148l-3.447-9.082a.42.42 0 0 0-.393-.267h-3.12a.42.42 0 0 0-.393.267L29.359 19h3.148a.216.216 0 0 0 .205-.145l.35-1.037h3.394l.35 1.037c.029.087.112.145.205.145zm-3.188-3.523l.936-2.776.936 2.776h-1.872zm25.732-5.593l-2.297 3.79-2.298-3.79a.489.489 0 0 0-.418-.233h-3.027V19h3.313v-4.414l1.474 2.36a.26.26 0 0 0 .22.12h1.472a.26.26 0 0 0 .22-.12l1.473-2.36V19H63V9.65h-3.027a.489.489 0 0 0-.418.233zM6.75 9.647h3.204v3.333h2.651V9.647h3.204V19h-3.204v-3.332H9.955V19H6.75V9.647zM2 19h3.425V9.647H2V19z"/>
    </g>
</svg>
