<svg xmlns="http://www.w3.org/2000/svg" width="18" height="16" viewBox="0 0 18 16">
    <path fill="#EE0058" fill-rule="nonzero" d="M13.928.103C12.15-.279 10.493.401 9 2.123 7.507.4 5.85-.28 4.072.102 1.76.593.064 2.675.002 5.076-.018 5.8.104 6.522.37 7.18c.45 1.127 2.536 3.316 5.46 6.27.757.765 1.452 1.487 1.963 2.019.328.34.757.531 1.207.531.45 0 .9-.191 1.207-.531.49-.532 1.206-1.254 1.963-2.02 2.924-2.953 5.01-5.142 5.46-6.269a5.245 5.245 0 0 0 .368-2.104c-.062-2.401-1.759-4.484-4.07-4.973zm1.82 6.27c-.327.807-3.353 3.889-4.99 5.547-.633.658-1.247 1.275-1.738 1.785-.49-.51-1.104-1.127-1.738-1.785-1.656-1.658-4.703-4.74-5.03-5.547a3.241 3.241 0 0 1-.225-1.254c.04-1.403 1.063-2.657 2.433-2.954.184-.043.348-.064.511-.064.982 0 1.902.616 2.884 1.913a1.387 1.387 0 0 0 2.25 0c1.144-1.51 2.208-2.104 3.394-1.85 1.37.298 2.413 1.531 2.433 2.955.041.446-.04.85-.184 1.254z"/>
</svg>
