<svg xmlns="http://www.w3.org/2000/svg" width="44" height="34" viewBox="0 0 44 34">
    <g fill="none" fill-rule="nonzero">
        <path fill="#FF5F00" d="M16.108 3.178h11.746v20.917H16.108z"/>
        <path fill="#EB001B" d="M16.854 13.637c0-4.25 2.014-8.02 5.109-10.459A13.417 13.417 0 0 0 13.685.333C6.265.333.26 6.283.26 13.637s6.003 13.304 13.424 13.304c3.132 0 6.003-1.071 8.278-2.845a13.242 13.242 0 0 1-5.109-10.459z"/>
        <path fill="#F79E1B" d="M43.702 13.637c0 7.354-6.004 13.304-13.424 13.304A13.417 13.417 0 0 1 22 24.096a13.186 13.186 0 0 0 5.108-10.459c0-4.25-2.013-8.02-5.108-10.459A13.417 13.417 0 0 1 30.278.333c7.42 0 13.424 5.987 13.424 13.304z"/>
        <path fill="#FFF" d="M8.166 33.667V31.45c0-.85-.522-1.404-1.417-1.404-.447 0-.932.147-1.268.628-.26-.407-.634-.628-1.193-.628-.373 0-.746.11-1.044.517v-.443h-.783v3.547h.783V31.71c0-.629.336-.924.858-.924s.783.332.783.924v1.958h.783V31.71c0-.629.373-.924.857-.924.522 0 .783.332.783.924v1.958h.858zm11.597-3.547h-1.268v-1.072h-.783v1.072h-.709v.702h.709v1.626c0 .813.335 1.293 1.23 1.293a2.1 2.1 0 0 0 .97-.258l-.224-.666a1.235 1.235 0 0 1-.671.185c-.373 0-.522-.222-.522-.591v-1.59h1.268v-.701zm6.637-.074c-.447 0-.746.221-.932.517v-.443h-.783v3.547h.783v-1.995c0-.592.26-.924.746-.924.149 0 .335.037.484.074l.224-.74c-.15-.036-.373-.036-.522-.036zm-10.03.37c-.373-.26-.895-.37-1.455-.37-.895 0-1.491.443-1.491 1.145 0 .592.447.924 1.23 1.035l.373.037c.41.074.634.185.634.37 0 .258-.298.443-.82.443a2.07 2.07 0 0 1-1.194-.37l-.372.592c.41.295.97.443 1.528.443 1.044 0 1.641-.48 1.641-1.145 0-.629-.485-.961-1.23-1.072l-.373-.037c-.336-.037-.597-.11-.597-.333 0-.258.261-.406.671-.406.448 0 .895.185 1.119.295l.335-.628zm20.806-.37c-.447 0-.745.221-.932.517v-.443h-.783v3.547h.783v-1.995c0-.592.261-.924.746-.924.149 0 .335.037.485.074l.223-.74c-.149-.036-.373-.036-.522-.036zm-9.993 1.847c0 1.072.746 1.848 1.902 1.848.522 0 .895-.11 1.268-.406l-.373-.628c-.299.221-.597.332-.933.332-.633 0-1.08-.443-1.08-1.146 0-.665.447-1.108 1.08-1.145.336 0 .634.11.933.332l.373-.628c-.373-.295-.746-.406-1.268-.406-1.156 0-1.902.776-1.902 1.847zm7.234 0V30.12h-.783v.443c-.261-.333-.634-.517-1.119-.517-1.007 0-1.79.776-1.79 1.847 0 1.072.783 1.848 1.79 1.848.522 0 .895-.184 1.119-.517v.443h.783v-1.774zm-2.871 0c0-.628.41-1.145 1.081-1.145.634 0 1.081.48 1.081 1.145 0 .629-.447 1.146-1.08 1.146-.672-.037-1.082-.517-1.082-1.146zm-9.36-1.847c-1.044 0-1.79.739-1.79 1.847 0 1.11.746 1.848 1.828 1.848.522 0 1.044-.148 1.454-.48l-.373-.554c-.298.221-.671.37-1.044.37-.485 0-.97-.223-1.081-.85h2.647v-.297c.037-1.145-.634-1.884-1.64-1.884zm0 .665c.485 0 .82.296.895.85h-1.864c.075-.48.41-.85.97-.85zm19.428 1.182v-3.178h-.783v1.848c-.262-.333-.634-.517-1.12-.517-1.006 0-1.789.776-1.789 1.847 0 1.072.783 1.848 1.79 1.848.522 0 .895-.184 1.119-.517v.443h.783v-1.774zm-2.872 0c0-.628.41-1.145 1.082-1.145.634 0 1.081.48 1.081 1.145 0 .629-.447 1.146-1.081 1.146-.671-.037-1.082-.517-1.082-1.146zm-26.176 0V30.12h-.783v.443c-.261-.333-.634-.517-1.119-.517-1.006 0-1.79.776-1.79 1.847 0 1.072.784 1.848 1.79 1.848.522 0 .895-.184 1.12-.517v.443h.782v-1.774zm-2.908 0c0-.628.41-1.145 1.081-1.145.634 0 1.081.48 1.081 1.145 0 .629-.447 1.146-1.081 1.146-.671-.037-1.081-.517-1.081-1.146z"/>
    </g>
</svg>
