<svg xmlns="http://www.w3.org/2000/svg" width="26" height="33" viewBox="0 0 26 33">
    <g fill="#FFF" fill-rule="nonzero">
        <path d="M25.887 32.862H.113v-3.876c0-6.403 5.044-11.594 11.266-11.594h3.242c6.222 0 11.266 5.191 11.266 11.594v3.876zM3.58 29.294h18.842v-.308c0-4.433-3.493-8.027-7.8-8.027h-3.242c-4.307 0-7.8 3.594-7.8 8.027v.308zM13 16.946c-3.304 0-6.283-2.049-7.547-5.19-1.264-3.142-.564-6.758 1.773-9.162C9.563.191 13.076-.528 16.129.774c3.052 1.303 5.041 4.37 5.04 7.77-.008 4.64-3.661 8.397-8.169 8.402zM13 3.7c-2.596 0-4.7 2.166-4.702 4.837 0 2.672 2.103 4.839 4.7 4.84 2.595.002 4.701-2.162 4.704-4.834-.003-2.67-2.106-4.836-4.702-4.838V3.7z"/>
    </g>
</svg>
