<svg xmlns="http://www.w3.org/2000/svg" width="17" height="23" viewBox="0 0 17 23">
    <g fill="#6004BA" fill-rule="evenodd">
        <path d="M8 11c1.655 0 3-1.346 3-3.001A3.002 3.002 0 0 0 8 5C6.345 5 5 6.345 5 7.999A3.003 3.003 0 0 0 8 11zm0-5.144a2.144 2.144 0 0 1 0 4.286 2.144 2.144 0 0 1 0-4.286z"/>
        <path d="M8.022 22.437l6.417-9.08c2.405-3.143 2.058-8.31-.746-11.054A8.053 8.053 0 0 0 8.022 0 8.056 8.056 0 0 0 2.35 2.3c-2.805 2.748-3.154 7.914-.756 11.046l6.427 9.091zM2.94 2.881a7.218 7.218 0 0 1 5.08-2.06c1.918 0 3.724.732 5.08 2.06 2.53 2.48 2.843 7.145.658 9.999l-5.737 8.119-5.747-8.132C.1 10.027.41 5.36 2.94 2.881z"/>
    </g>
</svg>
