<svg xmlns="http://www.w3.org/2000/svg" width="17" height="16" viewBox="0 0 17 16">
    <path fill="#FFF" fill-rule="nonzero" d="M14.968 0H2.031A2.023 2.023 0 0 0 0 2.014v7.804c0 1.114.91 2.015 2.031 2.015h1.741v3.407c0 .42.344.76.767.76a.768.768 0 0 0 .551-.23h.001l3.957-3.937h5.92A2.023 2.023 0 0 0 17 9.818V2.014C17 .902 16.09 0 14.968 0zM4.656 6.898a1.015 1.015 0 0 1-1.018-1.01c0-.558.456-1.01 1.018-1.01s1.019.452 1.019 1.01c0 .557-.457 1.01-1.019 1.01zm3.966 0a1.014 1.014 0 0 1-1.018-1.01c0-.558.456-1.01 1.018-1.01s1.018.452 1.018 1.01c0 .557-.456 1.01-1.018 1.01zm4.023 0a1.015 1.015 0 0 1-1.018-1.01c0-.558.456-1.01 1.018-1.01s1.018.452 1.018 1.01c0 .557-.456 1.01-1.018 1.01z"/>
</svg>
