<svg xmlns="http://www.w3.org/2000/svg" xmlns:xlink="http://www.w3.org/1999/xlink" width="15" height="16" viewBox="0 0 15 16">
    <defs>
        <path id="a" d="M0 0h15v16H0z"/>
    </defs>
    <g fill="none" fill-rule="evenodd">
        <mask id="b" fill="#fff">
            <use xlink:href="#a"/>
        </mask>
        <path fill="#00CAC5" d="M12.499 11.31c-.633 0-1.2.24-1.631.617L4.925 8.595c.043-.185.076-.371.076-.563a2.53 2.53 0 0 0-.076-.563l5.876-3.3c.448.4 1.04.65 1.698.65 1.385 0 2.501-1.074 2.501-2.41C15 1.077 13.883 0 12.499 0c-1.383 0-2.5 1.077-2.5 2.409 0 .194.034.377.076.562L4.2 6.275A2.534 2.534 0 0 0 2.5 5.623C1.116 5.623 0 6.7 0 8.032c0 1.333 1.116 2.41 2.501 2.41.657 0 1.25-.25 1.698-.65l5.932 3.339a2.26 2.26 0 0 0-.066.524c0 1.293 1.093 2.345 2.433 2.345 1.34 0 2.435-1.051 2.435-2.345 0-1.294-1.094-2.345-2.434-2.345z" mask="url(#b)"/>
    </g>
</svg>
