<svg xmlns="http://www.w3.org/2000/svg" xmlns:xlink="http://www.w3.org/1999/xlink" width="42" height="42" viewBox="0 0 42 42">
    <defs>
        <path id="a" d="M.005 0H42v42H.005z"/>
    </defs>
    <g fill="none" fill-rule="evenodd">
        <g>
            <mask id="b" fill="#fff">
                <use xlink:href="#a"/>
            </mask>
            <path fill="#6004BA" d="M39.54 23.543c0 .678-.553 1.23-1.231 1.23h-7.383c-.327 0-.64.13-.87.36l-2.822 2.822v-1.951c0-.68-.55-1.23-1.23-1.23h-2.461c-.679 0-1.23-.553-1.23-1.231v-9.844c0-.678.551-1.23 1.23-1.23h14.766c.678 0 1.23.552 1.23 1.23v9.844zm-14.767 8.613H2.461V7.383h22.312v2.625h-1.23a3.696 3.696 0 0 0-3.691 3.691v9.844a3.696 3.696 0 0 0 3.691 3.691h1.23v4.922zm0 6.153c0 .678-.552 1.23-1.23 1.23H3.691c-.678 0-1.23-.552-1.23-1.23v-3.692h22.312v3.692zM2.461 3.69c0-.678.552-1.23 1.23-1.23h19.852c.678 0 1.23.552 1.23 1.23v1.23H2.461v-1.23zm35.848 6.317H27.234V3.69A3.696 3.696 0 0 0 23.543 0H3.691A3.696 3.696 0 0 0 0 3.691V38.31A3.696 3.696 0 0 0 3.691 42h19.852a3.696 3.696 0 0 0 3.691-3.691v-6.874l4.201-4.2h6.874A3.696 3.696 0 0 0 42 23.542v-9.844a3.696 3.696 0 0 0-3.691-3.691z" mask="url(#b)"/>
        </g>
        <path fill="#6004BA" d="M35.8 15h-9.6c-.663 0-1.2.448-1.2 1s.537 1 1.2 1h9.6c.663 0 1.2-.448 1.2-1s-.537-1-1.2-1M30.833 20h-4.666c-.645 0-1.167.448-1.167 1s.522 1 1.167 1h4.666c.645 0 1.167-.448 1.167-1s-.522-1-1.167-1"/>
    </g>
</svg>
