<svg xmlns="http://www.w3.org/2000/svg" width="16" height="14" viewBox="0 0 16 14">
    <path fill="#FFF" fill-rule="evenodd" d="M15.637 1.512c-.251.111-.51.205-.773.282A3.42 3.42 0 0 0 15.56.569a.258.258 0 0 0-.377-.3 6.09 6.09 0 0 1-1.8.71A3.452 3.452 0 0 0 10.977 0a3.439 3.439 0 0 0-3.406 3.878A8.793 8.793 0 0 1 1.536.676a.258.258 0 0 0-.423.034 3.433 3.433 0 0 0-.465 1.727c0 .827.295 1.612.817 2.226a2.91 2.91 0 0 1-.46-.205.258.258 0 0 0-.383.22v.045c0 1.236.665 2.348 1.681 2.954a2.961 2.961 0 0 1-.261-.038.258.258 0 0 0-.294.332 3.434 3.434 0 0 0 2.516 2.303 6.077 6.077 0 0 1-3.248.927c-.243 0-.488-.015-.728-.043a.258.258 0 0 0-.17.473 9.263 9.263 0 0 0 5.01 1.469c3.497 0 5.684-1.65 6.904-3.033 1.52-1.725 2.392-4.008 2.392-6.264 0-.094-.001-.19-.004-.284a6.677 6.677 0 0 0 1.536-1.628.258.258 0 0 0-.319-.38"/>
</svg>
