<svg xmlns="http://www.w3.org/2000/svg" width="75" height="24" viewBox="0 0 75 24">
    <g fill="none" fill-rule="evenodd">
        <path fill="#005C9C" d="M32.538 23H27l3.461-23H36l-3.462 23M21.374 0l-5.87 15.819-.695-3.407v.002L12.738 2.072S12.487 0 9.817 0H.113L0 .389s2.968.6 6.44 2.63L11.79 23h6.414L28 0h-6.626M62.517 14.864l3.25-8.608 1.828 8.608h-5.078zM69.322 23H75L70.05 0h-4.973c-2.296 0-2.854 1.714-2.854 1.714L53 23h6.445l1.29-3.416h7.862L69.322 23zM53.141 5.99L54 1.01S51.349 0 48.585 0c-2.988 0-10.083 1.31-10.083 7.676 0 5.99 8.327 6.065 8.327 9.21 0 3.145-7.469 2.583-9.933.599L36 22.69S38.688 24 42.797 24c4.108 0 10.307-2.134 10.307-7.938 0-6.028-8.403-6.59-8.403-9.21 0-2.622 5.864-2.285 8.44-.861"/>
        <path fill="#EE9F3F" d="M15 13L12.901 2.17S12.648 0 9.943 0H.115L0 .407s4.724.985 9.256 4.673C13.587 8.606 15 13 15 13"/>
    </g>
</svg>
