<svg xmlns="http://www.w3.org/2000/svg" xmlns:xlink="http://www.w3.org/1999/xlink" width="42" height="29" viewBox="0 0 42 29">
    <defs>
        <path id="a" d="M.02.324h41.803V29H.02z"/>
    </defs>
    <g fill="none" fill-rule="evenodd">
        <mask id="b" fill="#fff">
            <use xlink:href="#a"/>
        </mask>
        <path fill="#FFF" d="M40.949 4.802C40.468 3.039 39.05 1.65 37.25 1.18 33.99.324 20.911.324 20.911.324s-13.078 0-16.34.856C2.772 1.65 1.355 3.04.874 4.802 0 7.997 0 14.662 0 14.662s0 6.665.874 9.86c.481 1.762 1.898 3.151 3.697 3.622C7.833 29 20.911 29 20.911 29s13.079 0 16.34-.856c1.8-.47 3.217-1.86 3.698-3.622.874-3.195.874-9.86.874-9.86s0-6.665-.874-9.86" mask="url(#b)"/>
        <path fill="#1D0033" d="M17 21l11-6-11-6v12" mask="url(#b)"/>
    </g>
</svg>
