<svg xmlns="http://www.w3.org/2000/svg" width="33" height="33" viewBox="0 0 33 33">
    <g fill="#FFF" fill-rule="nonzero">
        <path d="M3.7 30.918a1.858 1.858 0 0 1-1.85 1.868C.829 32.786 0 31.95 0 30.918L1.755 8.247c0-1.031.83-1.867 1.85-1.867a1.86 1.86 0 0 1 1.851 1.867L3.7 30.917zM32.192 30.918a1.858 1.858 0 0 1-1.85 1.868c-1.021 0-1.85-.836-1.85-1.868L26.736 8.247c0-1.031.828-1.867 1.85-1.867a1.86 1.86 0 0 1 1.85 1.867l1.756 22.67z"/>
        <path d="M30.342 29.05c1.022 0 1.85.837 1.85 1.869a1.856 1.856 0 0 1-1.85 1.866H1.85A1.858 1.858 0 0 1 0 30.92c0-1.032.828-1.868 1.85-1.868h28.492zM21.852 11.113V9.319c-.016-3.19-2.59-5.777-5.756-5.775-3.155-.002-5.72 2.563-5.758 5.752h.001V11.113c0 .979-.787 1.772-1.756 1.772-.97 0-1.757-.793-1.757-1.772 0-.048 0-1.777.002-1.867C6.887 4.128 11.012.001 16.096 0c5.1.001 9.238 4.158 9.268 9.31v1.803c0 .978-.787 1.771-1.756 1.771-.97.001-1.756-.792-1.756-1.771z"/>
    </g>
</svg>
