<svg xmlns="http://www.w3.org/2000/svg" width="159" height="27" viewBox="0 0 159 27">
    <path fill="#FFF" fill-rule="evenodd" d="M9.98 27C3.823 27 0 22.464 0 16.98 0 11.536 3.823 7 9.98 7 16.217 7 20 11.536 20 16.98 20 22.464 16.217 27 9.98 27zm0-3.669c3.622 0 5.634-2.958 5.634-6.35 0-3.354-2.012-6.312-5.634-6.312-3.582 0-5.594 2.958-5.594 6.311 0 3.393 2.012 6.351 5.594 6.351zM38 27h-4.142V14.798c0-3.03-1.498-4.04-3.826-4.04-2.13 0-3.944 1.293-4.89 2.626V27H21V7.485h4.142v2.667C26.404 8.616 28.849 7 31.847 7 35.949 7 38 9.263 38 13.263V27zm11.952 0C44.248 27 40 23.016 40 16.98 40 11.458 44.012 7 49.638 7 55.342 7 59 11.379 59 17.375v.986H44.327c.315 2.88 2.478 5.246 6.058 5.246 1.849 0 4.052-.749 5.39-2.09l1.888 2.722C55.774 26.053 52.98 27 49.953 27zm5.036-11.558c-.08-2.249-1.613-5.05-5.35-5.05-3.54 0-5.154 2.722-5.35 5.05h10.7zM68.079 27c-3.208 0-4.91-1.754-4.91-4.944V10.93H60V7.263h3.168V2h4.159v5.263h3.88v3.668h-3.88V21.02c0 1.316.633 2.273 1.822 2.273.792 0 1.544-.32 1.86-.678l.991 3.15c-.752.718-1.98 1.236-3.92 1.236zm28.873 0h-4.436L88 13.075 83.484 27h-4.436L73 8h4.395l4.113 13.807L86.145 8h3.71l4.637 13.807L98.605 8H103l-6.048 19zm16.028 0c-6.157 0-9.98-4.536-9.98-10.02 0-5.444 3.823-9.98 9.98-9.98 6.237 0 10.02 4.536 10.02 9.98 0 5.484-3.783 10.02-10.02 10.02zm0-3.669c3.622 0 5.634-2.958 5.634-6.35 0-3.354-2.012-6.312-5.634-6.312-3.582 0-5.594 2.958-5.594 6.311 0 3.393 2.012 6.351 5.594 6.351zM132.42 27h-4.212V11.406H125V7.737h3.21V6.66c0-4.187 2.446-6.66 6.137-6.66 1.725 0 3.45.439 4.653 1.675l-1.645 2.592c-.561-.518-1.283-.837-2.246-.837-1.645 0-2.688 1.077-2.688 3.23v1.077h3.931v3.67h-3.93V27zM142.5 5.223c-1.346 0-2.5-1.165-2.5-2.611C140 1.165 141.154 0 142.5 0c1.385 0 2.5 1.165 2.5 2.612 0 1.446-1.115 2.611-2.5 2.611zM144.538 27H140.5V7.594h4.038V27zm10.541 0c-3.208 0-4.91-1.754-4.91-4.944V10.93H147V7.263h3.168V2h4.159v5.263h3.88v3.668h-3.88V21.02c0 1.316.633 2.273 1.822 2.273.792 0 1.544-.32 1.86-.678l.991 3.15c-.752.718-1.98 1.236-3.92 1.236z"/>
</svg>
