<svg xmlns="http://www.w3.org/2000/svg" width="20" height="16" viewBox="0 0 20 16">
    <g fill="#FE7700" fill-rule="nonzero">
        <path d="M16.34 1.778h-3.73A2.949 2.949 0 0 0 9.9 0a2.948 2.948 0 0 0-2.708 1.778H3.461c-.634 0-1.149.513-1.149 1.146 0 .632.515 1.145 1.15 1.145H7.18A2.947 2.947 0 0 0 9.9 5.878a2.948 2.948 0 0 0 2.722-1.809h3.719c.634 0 1.149-.513 1.149-1.145 0-.633-.515-1.146-1.15-1.146zm-5.683 1.085a.755.755 0 0 1-1.512 0 .755.755 0 1 1 1.512 0zM4.958 4.672h-1.24L0 11.363a4.392 4.392 0 0 0 4.399 4.386 4.392 4.392 0 0 0 4.399-4.386l-3.84-6.691zm-.56.573l3.054 5.387H1.255l3.144-5.387zM15.963 4.672h-1.24l-3.718 6.691a4.392 4.392 0 0 0 4.398 4.386 4.392 4.392 0 0 0 4.4-4.386l-3.84-6.691zm-.56.573l3.054 5.387h-6.198l3.144-5.387z"/>
    </g>
</svg>
