<svg xmlns="http://www.w3.org/2000/svg" width="18" height="35" viewBox="0 0 18 35">
    <path fill="#FFF" fill-rule="evenodd" d="M.575 18.641H4.48v15.794a.57.57 0 0 0 .574.565h6.623a.57.57 0 0 0 .575-.565v-15.72h4.49a.571.571 0 0 0 .571-.5l.682-5.814a.558.558 0 0 0-.142-.44.58.58 0 0 0-.429-.19h-5.172V8.127c0-1.1.602-1.656 1.79-1.656h3.382A.57.57 0 0 0 18 5.906V.569a.57.57 0 0 0-.575-.565h-4.66A4.676 4.676 0 0 0 12.55 0c-.808 0-3.62.156-5.84 2.162-2.46 2.224-2.118 4.886-2.036 5.347v4.262h-4.1a.57.57 0 0 0-.575.565v5.74a.57.57 0 0 0 .575.565"/>
</svg>
