<svg xmlns="http://www.w3.org/2000/svg" width="15" height="29" viewBox="0 0 15 29">
    <path fill="#3A559F" fill-rule="evenodd" d="M.479 15.445h3.255v13.087c0 .259.214.468.479.468h5.519c.264 0 .479-.21.479-.468V15.507h3.742a.475.475 0 0 0 .475-.414l.569-4.818a.46.46 0 0 0-.118-.365.484.484 0 0 0-.358-.156h-4.31v-3.02c0-.911.502-1.373 1.492-1.373h2.818c.265 0 .479-.21.479-.467V.47a.473.473 0 0 0-.479-.468h-3.884A3.916 3.916 0 0 0 10.46 0c-.673 0-3.016.13-4.866 1.792-2.05 1.842-1.765 4.047-1.697 4.43v3.531H.479a.473.473 0 0 0-.479.468v4.757c0 .258.214.467.479.467"/>
</svg>
