<svg xmlns="http://www.w3.org/2000/svg" width="76" height="76" viewBox="0 0 76 76">
    <g fill="none" fill-rule="evenodd">
        <circle cx="38" cy="38" r="38" fill="#FFF"/>
        <path fill="#37547D" d="M30.575 40.174h3.906v16.245c0 .321.257.581.574.581h6.623c.318 0 .575-.26.575-.58V40.25h4.49a.577.577 0 0 0 .571-.514l.682-5.981a.584.584 0 0 0-.142-.453.572.572 0 0 0-.429-.194h-5.172v-3.75c0-1.13.603-1.703 1.79-1.703h3.382c.318 0 .575-.26.575-.58v-5.49c0-.32-.257-.58-.575-.58h-4.66A4.542 4.542 0 0 0 42.55 21c-.808 0-3.62.16-5.84 2.224-2.46 2.287-2.117 5.025-2.036 5.5v4.384h-4.1a.578.578 0 0 0-.575.58v5.905c0 .32.257.58.575.58"/>
    </g>
</svg>
