<svg xmlns="http://www.w3.org/2000/svg" width="226" height="44" viewBox="0 0 226 44">
    <g fill="none" fill-rule="evenodd">
        <path fill="#000" d="M68.98 32C62.823 32 59 27.237 59 21.48 59 15.762 62.823 11 68.98 11 75.217 11 79 15.763 79 21.48 79 27.236 75.217 32 68.98 32zm0-3.852c3.622 0 5.634-3.107 5.634-6.669 0-3.52-2.012-6.627-5.634-6.627-3.582 0-5.594 3.107-5.594 6.627 0 3.562 2.012 6.669 5.594 6.669zM100 31h-4.385V18.798c0-3.03-1.587-4.04-4.051-4.04-2.255 0-4.177 1.293-5.179 2.626V31H82V11.485h4.385v2.667c1.337-1.536 3.926-3.152 7.1-3.152 4.343 0 6.515 2.263 6.515 6.263V31zM112.476 32C106.472 32 102 27.817 102 21.48c0-5.8 4.224-10.48 10.145-10.48 6.004 0 9.855 4.598 9.855 10.893v1.036h-15.445c.331 3.024 2.609 5.509 6.377 5.509 1.946 0 4.265-.787 5.673-2.195l1.987 2.858c-1.987 1.905-4.927 2.899-8.116 2.899zm5.3-12.136c-.082-2.361-1.697-5.302-5.631-5.302-3.727 0-5.425 2.858-5.632 5.302h11.263zM131.752 33c-3.475 0-5.32-1.895-5.32-5.34V15.646H123v-3.962h3.432V6h4.505v5.684h4.205v3.962h-4.205V26.54c0 1.42.687 2.454 1.974 2.454.858 0 1.673-.344 2.016-.732L136 31.665c-.815.775-2.145 1.335-4.248 1.335z"/>
        <circle cx="22" cy="22" r="22" fill="#6004BA"/>
        <path fill="#000" d="M160.75 32h-4.583L151.5 17.342 146.833 32h-4.583L136 12h4.542l4.25 14.534L149.583 12h3.834l4.791 14.534L162.458 12H167zM176.98 32c-6.157 0-9.98-4.763-9.98-10.52 0-5.717 3.823-10.48 9.98-10.48 6.237 0 10.02 4.763 10.02 10.48 0 5.757-3.783 10.52-10.02 10.52zm0-3.852c3.622 0 5.634-3.107 5.634-6.669 0-3.52-2.012-6.627-5.634-6.627-3.582 0-5.594 3.107-5.594 6.627 0 3.562 2.012 6.669 5.594 6.669zM197.951 32h-4.513V15.829H190v-3.805h3.438v-1.117c0-4.343 2.622-6.907 6.576-6.907 1.848 0 3.697.455 4.986 1.737l-1.762 2.688c-.602-.537-1.376-.868-2.407-.868-1.762 0-2.88 1.117-2.88 3.35v1.117h4.212v3.805h-4.212V32zM208.5 10.417c-1.346 0-2.5-1.209-2.5-2.709S207.154 5 208.5 5c1.385 0 2.5 1.208 2.5 2.708 0 1.5-1.115 2.709-2.5 2.709zM210.538 33H206.5V12.875h4.038V33zM221.752 33c-3.475 0-5.32-1.895-5.32-5.34V15.646H213v-3.962h3.432V6h4.505v5.684h4.205v3.962h-4.205V26.54c0 1.42.687 2.454 1.974 2.454.858 0 1.673-.344 2.016-.732L226 31.665c-.815.775-2.145 1.335-4.248 1.335z"/>
    </g>
</svg>
