<svg xmlns="http://www.w3.org/2000/svg" width="16" height="16" viewBox="0 0 16 16">
    <g fill="none" fill-rule="evenodd">
        <circle cx="8" cy="8" r="8" fill="#CCC"/>
        <path fill="#000" d="M9.481 11.302l-.107.44c-.322.126-.58.223-.771.29-.193.066-.415.1-.67.1-.39 0-.694-.095-.91-.286a.923.923 0 0 1-.325-.725c0-.114.008-.23.025-.349a4.21 4.21 0 0 1 .078-.403l.4-1.426c.036-.136.066-.266.09-.388.025-.122.037-.233.037-.334 0-.183-.037-.31-.112-.381-.075-.072-.218-.108-.43-.108-.104 0-.21.017-.32.05-.109.032-.202.063-.28.092l.107-.44c.264-.107.516-.199.757-.275.24-.077.469-.115.683-.115.388 0 .686.094.896.28.21.188.315.431.315.73 0 .063-.007.172-.022.328-.014.156-.041.3-.08.43l-.4 1.42a3.949 3.949 0 0 0-.088.391c-.027.147-.04.257-.04.332 0 .189.043.317.127.386.085.068.232.102.44.102a1.843 1.843 0 0 0 .6-.142zm.103-5.962a.832.832 0 0 1-.28.632.958.958 0 0 1-.677.261.966.966 0 0 1-.679-.26.829.829 0 0 1-.283-.633c0-.248.094-.46.283-.635a.961.961 0 0 1 .679-.264c.264 0 .489.088.676.264a.84.84 0 0 1 .281.635z"/>
    </g>
</svg>
