<svg xmlns="http://www.w3.org/2000/svg" width="26" height="26" viewBox="0 0 26 26">
    <path fill="#6004BA" fill-rule="nonzero" stroke="#6004BA" d="M24.63 22.84l-5.174-5.145a10.33 10.33 0 0 0 2.188-6.354 10.19 10.19 0 0 0-3.012-7.28l-.025-.026A10.14 10.14 0 0 0 11.322 1c-2.754 0-5.354 1.08-7.31 3.035A10.19 10.19 0 0 0 1 11.315c0 2.753 1.081 5.35 3.037 7.306a10.287 10.287 0 0 0 7.31 3.035 10.42 10.42 0 0 0 6.384-2.187l5.174 5.17c.232.232.54.361.875.361.335 0 .644-.129.876-.36.463-.515.463-1.312-.026-1.8zm-7.722-6.02l-.052.026-.026.051a7.837 7.837 0 0 1-5.508 2.264 7.731 7.731 0 0 1-5.534-2.315 7.74 7.74 0 0 1-2.291-5.53c0-2.084.824-4.065 2.317-5.557a7.813 7.813 0 0 1 5.534-2.29 7.73 7.73 0 0 1 5.508 2.264l.026.026a7.74 7.74 0 0 1 2.29 5.53c0 2.11-.797 4.039-2.264 5.53z"/>
</svg>
