<svg xmlns="http://www.w3.org/2000/svg" width="43" height="41" viewBox="0 0 43 41">
    <path fill="#5A03AF" fill-rule="nonzero" d="M39.026 12.546l-9.71-1.416-4.346-8.852A4.116 4.116 0 0 0 21.276 0c-1.568 0-3 .891-3.694 2.302l-4.346 8.851-9.71 1.417A4.12 4.12 0 0 0 .201 15.38a4.14 4.14 0 0 0 1.041 4.235l7.029 6.851-1.659 9.702a4.137 4.137 0 0 0 1.638 4.042 4.106 4.106 0 0 0 4.338.313l8.687-4.58 8.687 4.58a4.106 4.106 0 0 0 4.338-.313 4.137 4.137 0 0 0 1.638-4.042l-1.659-9.702 7.028-6.875a4.14 4.14 0 0 0 1.042-4.234 4.12 4.12 0 0 0-3.324-2.812zm-8.234 10.752a4.14 4.14 0 0 0-1.176 3.66l1.512 8.851-7.935-4.19a4.105 4.105 0 0 0-3.829 0l-7.91 4.172 1.511-8.852a4.14 4.14 0 0 0-1.176-3.658l-6.393-6.232 8.822-1.269a4.118 4.118 0 0 0 3.1-2.26l3.958-8.055 3.952 8.037a4.118 4.118 0 0 0 3.106 2.278l8.822 1.287-6.364 6.231z"/>
</svg>
