<svg xmlns="http://www.w3.org/2000/svg" xmlns:xlink="http://www.w3.org/1999/xlink" width="33" height="25" viewBox="0 0 33 25">
    <defs>
        <path id="a" d="M.004.038H33v24.958H.004z"/>
    </defs>
    <g fill="none" fill-rule="evenodd">
        <g>
            <mask id="b" fill="#fff">
                <use xlink:href="#a"/>
            </mask>
            <path fill="#C6362D" d="M32.659 5.427s-.342-2.44-1.309-3.517C30.098.492 28.676.492 28.05.435 23.441.095 16.5.038 16.5.038S9.559.094 4.95.435c-.626.057-2.048.113-3.3 1.475C.626 2.988.341 5.427.341 5.427S0 8.321 0 11.214v2.666c0 2.894.341 5.73.341 5.73s.342 2.44 1.309 3.518c1.252 1.418 2.902 1.361 3.641 1.532C7.91 24.943 16.5 25 16.5 25s6.941 0 11.55-.397c.626-.057 2.048-.114 3.3-1.475.967-1.078 1.309-3.518 1.309-3.518S33 16.717 33 13.88v-2.666c0-2.893-.341-5.787-.341-5.787" mask="url(#b)"/>
        </g>
        <path fill="#FFFFFE" d="M13 7v12l10-5.862L13 7"/>
    </g>
</svg>
